<?xml version="1.0" standalone="no"?>
<!DOCTYPE svg PUBLIC "-//W3C//DTD SVG 20010904//EN"
 "http://www.w3.org/TR/2001/REC-SVG-20010904/DTD/svg10.dtd">
<svg version="1.0" xmlns="http://www.w3.org/2000/svg"
 width="324.000000pt" height="323.000000pt" viewBox="0 0 324.000000 323.000000"
 preserveAspectRatio="xMidYMid meet">
<metadata>
Created by potrace 1.15, written by Peter Selinger 2001-2017
</metadata>
<g transform="translate(0.000000,323.000000) scale(0.100000,-0.100000)"
fill="#000000" stroke="none">
<path d="M1500 2890 l0 -60 30 0 c41 0 43 -37 3 -46 -166 -40 -284 -223 -253
-393 l10 -59 -271 -748 c-149 -412 -282 -779 -294 -816 l-23 -66 160 -58 c106
-38 162 -54 166 -47 4 6 48 122 97 258 81 221 92 246 110 241 11 -3 63 -17
115 -32 87 -25 110 -28 270 -28 178 -1 290 14 290 37 0 7 -19 65 -42 130 l-43
118 -30 -6 c-89 -19 -174 -24 -254 -15 -80 9 -215 41 -227 53 -3 3 51 162 121
354 70 191 132 361 138 376 9 26 13 28 56 25 l46 -3 242 -670 c133 -368 256
-709 273 -758 17 -48 37 -87 44 -87 12 0 281 96 302 108 9 5 -74 244 -285 822
l-297 815 4 90 c3 76 0 99 -19 150 -30 80 -112 164 -189 192 -40 15 -56 26
-58 42 -3 17 2 21 22 21 25 0 26 2 26 60 l0 60 -120 0 -120 0 0 -60z m174
-304 c75 -31 109 -108 81 -182 -38 -101 -171 -125 -239 -43 -95 113 23 281
158 225z"/>
<path d="M683 599 c4 -24 11 -107 17 -184 7 -77 14 -146 16 -153 2 -9 58 37
144 118 77 73 140 136 140 139 0 5 -98 43 -309 119 -11 4 -13 -4 -8 -39z"/>
<path d="M2408 582 c-80 -31 -149 -59 -152 -62 -3 -3 58 -66 135 -139 77 -73
141 -132 143 -130 2 2 9 67 15 144 7 77 15 164 18 193 3 28 2 52 -3 51 -5 0
-75 -26 -156 -57z"/>
</g>
</svg>
